<svg xmlns="http://www.w3.org/2000/svg" viewBox="0 0 70 70"><path d="M 33.980031,62.157414 C 29.770741,61.832801 26.49018,60.922478 23.033668,59.119909 15.924275,55.412362 10.741031,48.544228 9.1893713,40.775318 8.7845606,38.748497 8.7069186,37.874636 8.7095248,35.37464 c 0.0019,-1.820184 0.051006,-2.779634 0.1878624,-3.670363 0.9352064,-6.086767 3.6281208,-11.309982 7.9958528,-15.508871 4.215577,-4.052613 9.645846,-6.6236558 15.415137,-7.2985261 2.774754,-0.3245804 6.321021,-0.155457 8.953077,0.4269769 2.754601,0.6095511 6.189855,2.0018872 8.416105,3.4111142 3.461886,2.191389 6.574197,5.305558 8.687103,8.692288 1.886872,3.024424 3.252336,6.878906 3.789272,10.696488 0.212068,1.507795 0.178591,5.505212 -0.05928,7.078558 -0.938548,6.207806 -3.806756,11.618549 -8.435863,15.913862 -3.96414,3.678297 -9.192783,6.125807 -14.59992,6.834172 -1.227184,0.160767 -4.13955,0.279511 -5.078839,0.207075 z" fill="#fff"/><path d="M24.4 39.3L26.5 41.4 35.3 32.6 44.2 41.4 46.3 39.3 35.3 28.4z"/><path d="M35.3,5.8C19.1,5.8,5.9,19,5.9,35.3s13.2,29.5,29.5,29.5s29.5-13.2,29.5-29.5S51.6,5.8,35.3,5.8z M35.3,61.7 c-14.6,0-26.5-11.9-26.5-26.5S20.7,8.8,35.3,8.8s26.5,11.9,26.5,26.5S49.9,61.7,35.3,61.7z"/></svg>