<?xml version="1.0" encoding="utf-8"?>
<!-- Generator: Adobe Illustrator 23.0.6, SVG Export Plug-In . SVG Version: 6.00 Build 0)  -->
<svg version="1.1" id="Layer_1" xmlns="http://www.w3.org/2000/svg" xmlns:xlink="http://www.w3.org/1999/xlink" x="0px" y="0px"
	 viewBox="0 0 70 70" style="enable-background:new 0 0 70 70;" xml:space="preserve">
<style type="text/css">
	.st0{fill:#111111;}
</style>
<g>
	<path class="st0" d="M56.6367722,54.830986V5.7779717c0-1.8008995-1.3773499-3.1782482-3.1782494-3.1782482H6.8420591
		c-1.8008995,0-3.1782482,1.3773487-3.1782482,3.1782482v49.4765625c0,3.072197,1.2712991,5.7208481,3.1782482,7.7338448
		c1.6954966,1.6954956,4.0259972,2.8607483,6.5685949,3.0728455c0.4241982,0.1060486,0.7416992,0.1060486,1.1658974,0.1060486
		h38.8819733c0.2114525,0,0.3334236-0.0038147,0.5495682,0c0.3602448-0.0038147,0.6156807,0,0.9338303,0
		c2.9661484,0,5.7208481-1.2713013,7.6277962-3.178894l0.1060486-0.1054039l0,0
		c2.0130005-2.0129967,3.1782455-4.661644,3.1782455-7.6284409V54.830986H56.6367722z M13.9229393,62.9417419l-0.5122852-0.0587654
		c-3.7078485-0.5302467-6.5685949-3.8145447-6.5685949-7.6284409V5.7779717h46.6164627V54.830986H22.3103962v0.4235497
		c0,0.9537964-0.2120991,1.9069481-0.5296001,2.7546959c-0.8477478,2.3305016-2.8607464,4.0259972-5.1918926,4.6616478
		c-0.6356506,0.2120972-1.2713003,0.3175011-2.012352,0.3175011L13.9229393,62.9417419z M56.7339287,62.9332848
		l-0.4442978,0.0550957H22.3103962c1.3773479-1.3773499,2.3304996-3.072197,2.7546978-4.9791489h37.0810699
		C61.1923676,60.4457817,59.2765274,62.2976341,56.7339287,62.9332848z"/>
	<rect x="23.2026253" y="19.1188393" class="st0" width="23.1125736" height="3.2272224"/>
	<rect x="23.2026253" y="30.3037128" class="st0" width="23.1125736" height="3.2272224"/>
	<rect x="23.2026253" y="41.4885864" class="st0" width="23.1125736" height="3.2272224"/>
	<rect x="11.8850098" y="19.1188393" class="st0" width="3.9213338" height="3.2272224"/>
	<rect x="11.8850098" y="30.3037128" class="st0" width="3.9213338" height="3.2272224"/>
	<rect x="11.8850098" y="41.4885864" class="st0" width="3.9213338" height="3.2272224"/>
</g>
</svg>
