<?xml version="1.0" encoding="utf-8"?>
<!-- Generator: Adobe Illustrator 23.0.0, SVG Export Plug-In . SVG Version: 6.00 Build 0)  -->
<svg version="1.1" id="Layer_1" xmlns="http://www.w3.org/2000/svg" xmlns:xlink="http://www.w3.org/1999/xlink" x="0px" y="0px"
	 viewBox="0 0 6.6 6.6" style="enable-background:new 0 0 6.6 6.6;" xml:space="preserve">
<style type="text/css">
	.st0{fill-rule:evenodd;clip-rule:evenodd;fill:#222222;}
</style>
<g>
	<path class="st0" d="M4.94,4.66c0.44-0.48999,0.71002-1.14001,0.71002-1.84003c0-1.52997-1.24005-2.76996-2.77002-2.76996
		c-1.53003,0-2.77002,1.23999-2.77002,2.76996c0,1.53003,1.23999,2.77002,2.77002,2.77002
		c0.64001,0,1.23999-0.21997,1.71002-0.59998l1.56,1.56l0.33997-0.34003L4.94,4.66z M2.88,5.04
		c-1.22003,0-2.22003-1-2.22003-2.22003C0.65997,1.6,1.65997,0.6,2.88,0.6c1.21997,0,2.21997,1,2.21997,2.21997
		C5.09998,4.04,4.09998,5.04,2.88,5.04z"/>
</g>
</svg>
