<?xml version="1.0" encoding="utf-8"?>
<!-- Generator: Adobe Illustrator 23.0.6, SVG Export Plug-In . SVG Version: 6.00 Build 0)  -->
<svg version="1.1" id="Layer_1" xmlns="http://www.w3.org/2000/svg" xmlns:xlink="http://www.w3.org/1999/xlink" x="0px" y="0px"
	 viewBox="0 0 70 70" style="enable-background:new 0 0 70 70;" xml:space="preserve">
<style type="text/css">
	.st0{fill:#111111;}
</style>
<g>
	<path class="st0" d="M26.3937683,2.4992893c-12.7136402,0-22.9900837,10.2764435-22.9900837,22.9900837
		c0,10.9120941,7.5217462,20.0239334,17.6927872,22.354435v15.0441399c0,1.6954956,1.3773479,3.178894,3.1782475,3.178894h4.2380962
		c1.6948509,0,3.1782475-1.4833984,3.1782475-3.178894V47.8438072c10.1710434-2.3305016,17.6927872-11.4423409,17.6927872-22.354435
		C49.3838501,12.775733,39.1074066,2.4992893,26.3937683,2.4992893z M31.6910629,44.4534607
		c-1.1650276,0.3807106-2.1190472,0.6356468-3.1782475,0.6356468v17.7988396h-4.2380962V45.0891075
		c-1.0967026-0.0757294-2.0719471-0.2859001-3.1782475-0.6356468c-8.3694954-2.224453-14.5145397-9.8528938-14.5145397-18.9640884
		c0-10.9127398,8.8997421-19.8118343,19.8118362-19.8118343c10.9127388,0,19.8118362,8.8990955,19.8118362,19.8118343
		C46.2056046,34.6005669,40.0605583,42.2290077,31.6910629,44.4534607z"/>
	<path class="st0" d="M26.3937683,8.8557854c-9.2172432,0-16.6335869,7.4163437-16.6335869,16.6335869
		c0,7.3102951,4.7676954,13.4553375,11.3362913,15.5737419c0.9537983,0.4241943,1.9923782,0.7054596,3.1538124,0.8374405
		c0.7741699,0.0896988,1.4017849,0.1163559,2.1434841,0.1163559s1.5992947-0.012043,2.150301-0.1251526
		c1.1829643-0.1807785,2.1938438-0.4044495,3.1469936-0.8286438c6.5685959-2.1184044,11.2302437-8.3694954,11.2302437-15.5737419
		C42.9213066,16.2721291,35.5049629,8.8557854,26.3937683,8.8557854z M31.6910629,39.3682632
		c-0.9531498,0.4235497-2.0090351,0.7227516-3.1645908,0.922123c-0.6356506,0.1054039-1.3910046,0.1370773-2.1327038,0.1370773
		s-1.3838596,0.0254288-2.1464176-0.1077461c-1.1283207-0.2012138-2.1970806-0.5279045-3.1508789-0.9514542
		c-5.7208471-2.0130005-9.7468433-7.5223942-9.7468433-13.878891c0-8.2640915,6.7806931-15.0441389,15.0441399-15.0441389
		c8.2640915,0,14.938736,6.7800474,14.938736,15.0441389C41.3325043,31.8458691,37.3065071,37.3552628,31.6910629,39.3682632z"/>
	<path class="st0" d="M23.5301914,14.8257513c-0.2033691,0-0.4066563,0.0775976-0.5618515,0.2327509l-6.3678131,6.3677731
		c-0.3103065,0.3103065-0.3103065,0.8133545,0,1.1236629c0.1551952,0.1551533,0.3585644,0.2327499,0.5619335,0.2327499
		s0.4067383-0.0775967,0.5618515-0.2327499l6.3677311-6.3677731c0.3103085-0.3103075,0.3103085-0.8133545,0-1.1236629
		C23.9368496,14.9033489,23.7334805,14.8257513,23.5301914,14.8257513L23.5301914,14.8257513z"/>
	<path class="st0" d="M25.2458153,17.962656c-0.2033691,0-0.4067383,0.0775566-0.5618515,0.2327099l-8.6153812,8.6152191
		c-0.3101454,0.3103065-0.3101454,0.8134365,0,1.1237831c0.1551952,0.1551552,0.3585644,0.2327118,0.5619335,0.2327118
		c0.2034492,0,0.4068184-0.0775566,0.5619316-0.2327118l8.6152191-8.6152191c0.3103085-0.3104286,0.3103085-0.8134346,0-1.1237831
		C25.6525536,18.0402126,25.4491844,17.962656,25.2458153,17.962656L25.2458153,17.962656z"/>
	<path class="st0" d="M64.7367935,43.0655289v-9.7474899H51.4935532v9.7474899
		c-0.8477478,0.5295982-1.3773499,1.4827499-1.3773499,2.5425987v17.4806862c0,1.8015442,1.3773499,3.178894,3.1782494,3.178894
		h9.6407928c1.801548,0,3.1788979-1.3773499,3.1788979-3.178894V45.6081276
		C66.1141434,44.5482788,65.5838928,43.5951271,64.7367935,43.0655289z M54.6717987,36.496933h6.886097v5.9329453h-6.886097
		V36.496933z M62.9352455,63.0888138h-9.6407928V45.6081276h9.6407928V63.0888138z"/>
	<path class="st0" d="M54.4597015,19.0155964v1.0592003c0-0.3175011,0.1060486-0.6356487,0.2120972-1.0592003H54.4597015z
		 M54.4597015,19.0155964v1.0592003c0-0.3175011,0.1060486-0.6356487,0.2120972-1.0592003H54.4597015z M54.4597015,19.0155964
		v1.0592003c0-0.3175011,0.1060486-0.6356487,0.2120972-1.0592003H54.4597015z M54.4597015,19.0155964v1.0592003
		c0-0.3175011,0.1060486-0.6356487,0.2120972-1.0592003H54.4597015z M54.4597015,19.0155964v1.0592003
		c0-0.3175011,0.1060486-0.6356487,0.2120972-1.0592003H54.4597015z"/>
	<path class="st0" d="M62.8298416,15.5192003C62.0881424,14.46,60.9222488,14.0364494,59.544899,14.0364494
		c-1.2713013,0-2.6486473,0.4235506-3.9199486,1.2712994c-0.8470993,0.6356497-1.4827499,1.3773479-1.9069481,2.1184006
		c-0.6356506,0.8477478-0.8471031,1.8015461-0.8471031,2.6486473v13.2432423h1.5888023V22.935545
		c0.6356506,0.4235497,1.4833984,0.6356487,2.3311462,0.6356487c1.1652489,0,2.5425987-0.4235516,3.8139-1.2712994
		c0.4235497-0.3175011,0.8477478-0.6356487,1.1652489-1.0592003v12.0773449h1.589447V18.1678486
		C63.5708961,17.2146969,63.3594437,16.2609005,62.8298416,15.5192003z M61.4524956,19.0155964
		c-0.4241982,0.7416992-0.9538002,1.4833984-1.801548,2.0129986c-0.8470993,0.6356506-1.9069481,0.9537983-2.8600998,0.9537983
		c-0.5302467,0-1.4833984-0.1060505-2.0129967-0.8477478c-0.212101-0.3181496-0.3181496-0.6356506-0.3181496-1.0598488v-1.0592003
		h0.2120972c0.212101-0.5296001,0.5296021-1.0592003,0.9531517-1.589447
		c0.3181496-0.3175011,0.6356506-0.6356487,0.9538002-0.8471012c0.9537964-0.6356497,2.0129967-0.9537983,2.9661484-0.9537983
		c0.5302467,0,1.4833984,0.1060495,1.9075966,0.8477478c0.2114525,0.2120991,0.3175011,0.6356506,0.2114525,0.9531517
		C61.8760452,17.9563961,61.6639481,18.4859962,61.4524956,19.0155964z"/>
</g>
</svg>
