<?xml version="1.0" encoding="utf-8"?>
<!-- Generator: Adobe Illustrator 23.0.6, SVG Export Plug-In . SVG Version: 6.00 Build 0)  -->
<svg version="1.1" id="Layer_1" xmlns="http://www.w3.org/2000/svg" xmlns:xlink="http://www.w3.org/1999/xlink" x="0px" y="0px"
	 viewBox="0 0 70 70" style="enable-background:new 0 0 70 70;" xml:space="preserve">
<style type="text/css">
	.st0{fill:#111111;}
</style>
<path class="st0" d="M34.7102814,3.4124858c-17.5873852,0-31.7837772,14.1970377-31.7837772,31.7837772
	c0,9.6414413,4.2374487,18.2230339,11.0181437,23.943882c1.2712984,1.2712975,2.7546968,2.2250938,4.2380953,3.1782455
	c4.7676945,2.9667969,10.4885426,4.661644,16.5275383,4.661644s11.7598419-1.6948471,16.5275383-4.661644
	c1.4833946-0.9531517,2.9661484-1.9069481,4.2380943-3.1782455c6.7800484-5.7208481,11.0181427-14.3024406,11.0181427-23.943882
	C66.4940567,17.6095238,52.29702,3.4124858,34.7102814,3.4124858z M52.7212143,55.7497978
	c0,0.6356468,0,1.2712975-0.2120972,1.8008995c-4.873745,3.9199448-11.0181427,6.251091-17.7988358,6.251091
	s-12.9257393-2.3311462-17.7988377-6.251091c-0.2120991-0.5296021-0.2120991-1.1652527-0.2120991-1.8008995v-2.7546997
	c0-8.793045,7.098196-15.8918877,15.8918877-15.8918877h4.2380943c8.7930489,0,15.8918877,7.0988426,15.8918877,15.8918877
	V55.7497978z M35.0277824,33.8189125h-0.7410545c-4.3441429,0-7.9459419-3.4963951-7.9459419-7.9459438v-2.4365482
	c0-4.4495487,3.601799-7.9459448,7.9459419-7.9459448h0.7410545c4.4501953,0,7.9459419,3.4963961,7.9459419,7.9459448v2.4365482
	C42.9737244,30.3225174,39.4779778,33.8189125,35.0277824,33.8189125z M41.8084755,34.6666603
	c2.6486473-2.0129967,4.3441467-5.191246,4.3441467-8.7936916v-2.4365482c0-6.1450443-4.9797974-11.1241932-11.1248398-11.1241932
	h-0.7410545c-6.1450424,0-11.1248379,4.9791489-11.1248379,11.1241932v2.4365482
	c0,3.6024456,1.6954975,6.8867435,4.4501953,8.7936916c-8.1580429,2.1190491-14.0909891,9.4293442-14.0909891,18.3284378v1.3773499
	c-4.6616459-5.0851974-7.4163437-11.8658905-7.4163437-19.1761856c0-15.7858391,12.8196898-28.6055279,28.6055298-28.6055279
	s28.605526,12.8196888,28.605526,28.6055279c0,7.3102951-2.7546959,14.0909882-7.4163437,19.1761856v-1.3773499
	C55.8994637,44.2020531,49.9665184,36.7857094,41.8084755,34.6666603z"/>
</svg>
