<?xml version="1.0" encoding="utf-8"?>
<!-- Generator: Adobe Illustrator 23.0.6, SVG Export Plug-In . SVG Version: 6.00 Build 0)  -->
<svg version="1.1" id="Layer_1" xmlns="http://www.w3.org/2000/svg" xmlns:xlink="http://www.w3.org/1999/xlink" x="0px" y="0px"
	 viewBox="0 0 70 70" style="enable-background:new 0 0 70 70;" xml:space="preserve">
<g>
	<path d="M49.118824,9.7053156c3.6175194,0,7.0253677,1.4333639,9.5816269,4.0215101
		c5.2970924,5.4331322,5.2813301,14.2608528-0.020977,19.6638756l-2.5294647,2.5446205l-8.6430626,8.8228302L34.7802925,57.7059174
		L22.1314373,44.8365593l-8.761198-8.8560143l-2.5246944-2.5825272c-5.3408232-5.4074688-5.3408232-14.2061729,0.0073147-19.6209564
		c2.5493889-2.5981283,5.9434547-4.0289469,9.5568523-4.0289469c3.6173992,0,7.0253677,1.433445,9.6032486,4.0436583
		l2.5131359,2.5279694l2.2731895,2.2865276l2.2537918-2.3056049l2.5088921-2.5665236
		C42.1112404,11.1361332,45.5053444,9.7053156,49.118824,9.7053156 M49.118782,6.5269051
		c-4.2861061,0-8.5669212,1.6603765-11.8254356,4.9810877l-2.513134,2.5708895l-2.5131378-2.5279684
		c-3.27981-3.3207922-7.5712948-4.9811683-11.8574028-4.9811683s-8.5669231,1.6603761-11.8254366,4.9811683
		c-6.5596633,6.6414232-6.5596633,17.4391022,0,24.0805664l2.5131359,2.5708466l8.7745352,8.8695908l14.9083061,15.1681747
		l14.9934578-15.2538948l8.6467819-8.8266716l2.5131378-2.5280457c6.5596657-6.6842651,6.5596657-17.4391441,0.0425987-24.1234894
		C57.6963768,8.1872816,53.4049301,6.5269051,49.118782,6.5269051L49.118782,6.5269051z"/>
</g>
</svg>
