<?xml version="1.0" encoding="utf-8"?>
<!-- Generator: Adobe Illustrator 19.2.1, SVG Export Plug-In . SVG Version: 6.00 Build 0)  -->
<svg version="1.1" id="Layer_1" xmlns="http://www.w3.org/2000/svg" xmlns:xlink="http://www.w3.org/1999/xlink" x="0px" y="0px"
	 viewBox="0 0 988.2 229.5" style="enable-background:new 0 0 988.2 229.5;" xml:space="preserve">
<style type="text/css">
	.st0{fill:#231F20;}
</style>
<g>
	<g>
		<g>
			<g id="BUM4l2.tif_13_">
				<g>
					<path class="st0" d="M988.2,39.6c-8.6,13.3-22,20.1-35.8,26c-17.8,7.6-35.9,14.5-54,21.5c-3.7,1.4-5.4,3.2-6,7.3
						c-4.1,29.2-8.8,58.3-12.6,87.5c-0.9,7.2,1.3,14.7,1.2,22.1c-0.1,6-1.1,12.2-2.8,18c-1.5,5-6.1,4.9-8.3,1.1
						c-2.7-4.6-4.8-10.1-5.2-15.3c-1.6-21.5,2.8-42.7,5.5-63.9c2-15.3,4-30.5,6.1-46.7c-6.2,1.1-11.5,2-16.8,2.9
						c-0.5-0.6-0.9-1.3-1.4-1.9c5.9-5.8,12-11.4,17.7-17.4c2.2-2.4,4.5-5.3,5.3-8.3c1.8-6.3,2.2-13,3.9-19.4
						c1.4-5.1,3.9-10,6.9-14.7c8.2,9,2.4,19.6,5.1,29.4c1.8,0,3.6,0.3,5.3,0c19.9-3.9,39.1-10.2,57-19.8c3.8-2,7.3-4.7,10.3-7.8
						c6.8-6.9,5.8-13.7-2.9-17.8c-6.1-2.8-12.7-4.9-19.3-6.3c-26.5-5.5-53-6.5-79.6,0.4c-10.3,2.7-21.1,3.4-31.7,4.9
						c-2.1,0.3-4.3,0-6.4,0c-0.3-0.7-0.6-1.5-0.8-2.2c5.1-3.1,9.9-6.7,15.3-9.2c14.7-6.6,30.6-8.3,46.4-9.3
						c23.8-1.6,47.4-0.3,70.4,6.7c11.8,3.6,22,9.2,27.4,21.1C988.2,32.2,988.2,35.9,988.2,39.6z"/>
					<path class="st0" d="M484.2,40.4c13.4-1.7,14-1.1,21,18.3c3.1-2.5,5.9-5.2,9-7.3c19.1-13,40.5-20.2,63.1-23.8
						c10.6-1.7,21,0.3,30.1,6.6c9,6.2,10.8,12.8,4.2,21.4c-5.4,7.2-11.8,13.8-18.6,19.7c-9.8,8.4-20.5,15.8-31.7,24.3
						c3,3.4,6.4,7.4,10,11.2c14.9,15.9,30.4,31.4,44.8,47.9c7.1,8.1,12.2,18,18.1,27.1c2.8,4.3,1.5,7.7-3.9,10.7
						c-25.6-28.9-51.3-58-77-87.1c-0.6,0.2-1.2,0.5-1.8,0.7c-1.2,21.2-2.4,42.4-3.7,64.4c-6-3.1-7.9-8-8.5-12.9
						c-1.1-9.4-2.4-18.9-1.7-28.3c1.8-25.5,4.6-50.9,7.1-76.3c0.2-2.4,1-4.7,1.7-7.9c14.8,9.6,6.5,23.8,8.7,35.3
						c0.5,0.1,1,0.5,1.2,0.4c16.5-9.5,32.3-19.9,43.7-35.7c3.4-4.7,2.5-7.3-3-8.1c-29.3-4.2-56.2,1.6-79.3,21
						c-7.8,6.6-12.1,14.4-12.6,25.5c-1.1,23.5-5.4,46.7-13.7,68.9c-2.4,6.5-5.8,12.9-10,18.3c-9.5,12.3-24,12.1-32.4-1
						c-5.5-8.7-9.4-18.7-12.5-28.7c-8.8-28.3-8.9-57.2-4.8-86.3c0.3-2,3.3-4.7,5.4-5.2c1.8-0.4,5.4,1.5,6.2,3.2
						c1.6,3.7,2.5,7.9,2.4,11.9c-0.1,9.9-0.8,19.8-1.3,29.6c-1.4,23.2,5.2,44.9,13.4,66.1c1.1,3,5.7,6.5,8.5,6.4
						c3.3-0.1,8.2-3.3,9.3-6.4c4.3-11.5,8-23.3,10.9-35.3c5.1-21.4,7.7-43,4.3-65c-0.6-4.2-2.6-8.2-3.8-12.3
						C486,48.1,485.2,44.5,484.2,40.4z"/>
					<path class="st0" d="M668.8,97.3c-5.9,1-11.1,2-16.3,2.9c-0.5-0.6-1-1.2-1.4-1.8c5.5-5.5,10.6-11.6,16.7-16.4
						c3.9-3.1,5.9-6.5,6.6-11.2c1.1-6.5,2-13.1,3.8-19.4c1.3-4.5,3.7-8.7,5.7-13.1c0.8,0,1.7,0.1,2.5,0.1c1.1,2.9,2.5,5.7,3.2,8.6
						c0.5,2.1,0.2,4.5,0,6.8c-1.4,15.9-1.2,16.6,13.8,12.1c15.5-4.6,30.8-10.5,45.8-16.5c5-2,9.6-5.8,13.5-9.6
						c6.7-6.6,5.8-14.1-3-17.1c-11.9-4.2-24.5-6.7-37-9.2c-22.3-4.5-44.2-0.8-66.1,4c-11.2,2.4-22.6,3.4-34,5
						c-0.4-0.9-0.7-1.8-1.1-2.8c4.3-2.8,8.2-6.8,12.8-8.3c11.5-3.7,23.2-7.3,35.1-9c26.9-3.8,53.9-3.2,80.3,4.1
						c6.9,1.9,13.7,4.7,19.8,8.4c14.6,9.2,15.6,25.4,1.7,35.6c-9.1,6.6-19.2,12.1-29.5,16.7c-16.6,7.3-33.6,13.6-50.5,20
						c-3.9,1.5-5.4,3.6-6,7.5c-4.1,28.1-8.5,56.2-12.2,84.4c-0.9,6.6,0.6,13.5,0.4,20.2c-0.3,7.5-0.4,15.2-2.2,22.3
						c-1.5,5.6-5.9,6.1-8.9,1c-2.7-4.7-4.9-10.8-4.6-16.2c1.4-22,3.6-43.9,5.8-65.8c1.3-12.3,3.2-24.5,4.8-36.8
						C668.5,101.9,668.6,99.9,668.8,97.3z"/>
					<path class="st0" d="M115.4,12.3C88.3,7.3,71.8,22.6,58.8,42.2c-23.7,35.7-37.8,75.3-44.1,117.6c-0.9,6.2-0.5,12.8,0.4,19.1
						c3.8,28.6,21.9,42.9,50.3,38.5c15.1-2.3,29.9-7.2,44.6-11.7c14.3-4.4,28.2-9.9,42.3-15c0.5,0.7,1,1.5,1.4,2.2
						c-4.6,4-8.9,8.7-14,11.9c-17.5,11.2-36.8,18.8-57.1,22.5c-12,2.2-24.7,2.8-36.7,1.4C20,225.5,4.8,208.6,1,182.6
						c-2.6-18,0.3-35.3,4.9-52.5c7.6-28.5,16.5-56.6,31.2-82.4C46.3,31.7,57.2,17,73.9,7.9c10.9-6,22.4-9.3,34.9-4.9
						C113.1,4.5,115.3,7.1,115.4,12.3z"/>
					<path class="st0" d="M242.2,191.6c13.4-2.2,25.9-4.5,38.4-6.3c15.1-2.1,30.2-3.8,45.3-5.7c5.8-0.7,8.3,2.1,8.7,7.8
						c-15.4,2.9-30.8,5.8-46.1,8.7c-15.8,3-31.7,5.6-47.2,9.4c-14.7,3.6-18.1-6.5-16.9-16.5c3-24.9,6.4-49.8,9.6-74.7
						c4.2-32.3,8.3-64.5,12.4-96.8c0.5-3.8,0.8-7.1,6.3-7c4.8,0.1,7,2,6.8,6.5c-0.5,11.9-0.8,23.8-2.1,35.6
						c-4.9,44-10.1,87.9-15.2,131.9C242,186.4,242.2,188.2,242.2,191.6z"/>
					<path class="st0" d="M360,53.2c-4.9,0-8.5,0-12.5,0c11.5-15.4,36.2-20,48.1-1.5c8.2,12.7,12.2,26.7,12,41.6
						c-0.3,21.3-5.4,41.7-15.1,60.6c-3.5,6.7-8.9,13.1-15,17.6c-13.7,10.1-29.3,5.9-36.4-9.7c-10.3-22.5-12.7-45.8-3.7-69.6
						C342.7,78.4,349,65.1,360,53.2z M395.9,88.8c-3.9-10.2,1.7-26.8-17-30.7c-2.8-0.6-6.9-0.6-8.8,1c-3.8,3.3-7.2,7.4-9.5,11.9
						c-7.8,15.1-12.3,31.3-15,48.1c-2.1,12.9,0.2,25,5.2,36.8c4.5,10.5,13.1,12.7,21.7,5.4c3.2-2.7,6.1-6.3,7.9-10.1
						C389.5,132,394.2,111.6,395.9,88.8z"/>
					<path class="st0" d="M793.8,53c-4.6,0-8.1,0-11.8,0c10.9-15,35.4-19.7,47.1-2.3c9.6,14.2,13.6,30,12.6,46.8
						c-1.1,19.7-5.9,38.7-14.9,56.3c-3.1,6.1-7.7,11.9-12.9,16.2c-14.5,11.9-31.6,8-39.1-9.2c-9-20.5-11.8-41.9-4.7-63.8
						c4.9-15,11.1-29.2,21.9-41.1C792.5,55.4,792.8,54.7,793.8,53z M830.1,88.5c-3.8-10.1,1.6-26.8-17.2-30.5
						c-2.8-0.6-6.9-0.4-8.8,1.3c-3.9,3.5-7.9,7.8-9.6,12.5c-5.5,15.7-10.5,31.5-14.5,47.6c-3.1,12.4,0,24.6,4.9,36.1
						c4.7,11.2,14.3,13.2,23.1,4.8c3.1-2.9,5.7-6.6,7.4-10.5C823.9,130.9,828.7,111,830.1,88.5z"/>
					<path class="st0" d="M167.4,53.1c-5.2,0-8.8,0-12.7,0c13-16.2,38.6-20.6,49.7,1.5c5,9.9,9,21.1,10,32
						c2.3,24.5-4.4,47.8-15.8,69.5c-3.3,6.3-8.9,12.1-14.8,16.1c-13.5,9.1-28.2,5-35.1-9.8c-9.5-20.4-12.5-41.8-5.9-63.7
						C147.6,82.4,154.5,67,167.4,53.1z M151.1,131.4c2,7,4.3,17.2,8.1,26.8c3,7.5,10.1,9.6,16.9,5.2c4.6-3,9-7.5,11.5-12.4
						c8.1-15.9,11.9-33.2,14.4-50.9c1.7-12-0.4-23.1-4.2-34.5c-2.6-7.7-9.1-6.9-14.2-8.5c-2.5-0.8-6.5,2.5-9.4,4.4
						c-1.6,1.1-2.8,3-3.8,4.8C159.3,85.4,154,106.1,151.1,131.4z"/>
				</g>
			</g>
		</g>
	</g>
</g>
</svg>
